<svg width="27" height="24" viewBox="0 0 27 24" fill="none" xmlns="http://www.w3.org/2000/svg">
<path d="M24.9231 0H2.07692C1.52609 0 0.997815 0.219868 0.608317 0.611236C0.218818 1.0026 2.664e-07 1.53341 2.664e-07 2.08689V22.9558C-0.000126575 23.1338 0.0450432 23.3088 0.131216 23.4643C0.217388 23.6197 0.3417 23.7505 0.492335 23.8441C0.64297 23.9376 0.814923 23.991 0.991848 23.9989C1.16877 24.0069 1.34479 23.9693 1.50317 23.8897L5.19231 22.035L8.88144 23.8897C9.02572 23.9622 9.18483 24 9.34615 24C9.50748 24 9.66659 23.9622 9.81087 23.8897L13.5 22.035L17.1891 23.8897C17.3334 23.9622 17.4925 24 17.6538 24C17.8152 24 17.9743 23.9622 18.1186 23.8897L21.8077 22.035L25.4968 23.8897C25.6552 23.9693 25.8312 24.0069 26.0082 23.9989C26.1851 23.991 26.357 23.9376 26.5077 23.8441C26.6583 23.7505 26.7826 23.6197 26.8688 23.4643C26.955 23.3088 27.0001 23.1338 27 22.9558V2.08689C27 1.53341 26.7812 1.0026 26.3917 0.611236C26.0022 0.219868 25.4739 0 24.9231 0ZM24.9231 21.268L22.2724 19.935C22.1281 19.8625 21.969 19.8247 21.8077 19.8247C21.6464 19.8247 21.4873 19.8625 21.343 19.935L17.6538 21.7898L13.9647 19.935C13.8204 19.8625 13.6613 19.8247 13.5 19.8247C13.3387 19.8247 13.1796 19.8625 13.0353 19.935L9.34615 21.7898L5.65702 19.935C5.51275 19.8625 5.35364 19.8247 5.19231 19.8247C5.03098 19.8247 4.87187 19.8625 4.7276 19.935L2.07692 21.268V2.08689H24.9231V21.268ZM4.7276 16.5856C4.84963 16.647 4.98252 16.6836 5.11866 16.6934C5.2548 16.7031 5.39152 16.6859 5.521 16.6425C5.65048 16.5991 5.77018 16.5305 5.87326 16.4406C5.97634 16.3508 6.06077 16.2413 6.12173 16.1186L6.87202 14.6082H11.8203L12.5706 16.1186C12.6316 16.2413 12.7161 16.3506 12.8192 16.4405C12.9223 16.5303 13.0419 16.5989 13.1714 16.6422C13.3009 16.6856 13.4375 16.7029 13.5737 16.6932C13.7098 16.6835 13.8427 16.6469 13.9647 16.5856C14.0868 16.5243 14.1956 16.4394 14.285 16.3358C14.3744 16.2322 14.4427 16.1119 14.4858 15.9819C14.529 15.8518 14.5462 15.7144 14.5365 15.5777C14.5268 15.4409 14.4905 15.3074 14.4294 15.1847L10.2756 6.83718C10.1895 6.66354 10.0569 6.51747 9.89267 6.41537C9.72849 6.31327 9.53924 6.25918 9.34615 6.25918C9.15307 6.25918 8.96381 6.31327 8.79964 6.41537C8.63546 6.51747 8.50286 6.66354 8.41673 6.83718L4.26289 15.1847C4.20177 15.3074 4.16531 15.4409 4.15559 15.5777C4.14587 15.7145 4.16308 15.8519 4.20624 15.982C4.2494 16.1121 4.31767 16.2323 4.40712 16.3359C4.49658 16.4395 4.60548 16.5243 4.7276 16.5856ZM9.34615 9.63753L10.7818 12.5213H7.91048L9.34615 9.63753ZM14.5385 11.4779C14.5385 11.2012 14.6479 10.9358 14.8426 10.7401C15.0374 10.5444 15.3015 10.4345 15.5769 10.4345H17.6538V8.34757C17.6538 8.07083 17.7633 7.80542 17.958 7.60974C18.1528 7.41405 18.4169 7.30412 18.6923 7.30412C18.9677 7.30412 19.2319 7.41405 19.4266 7.60974C19.6214 7.80542 19.7308 8.07083 19.7308 8.34757V10.4345H21.8077C22.0831 10.4345 22.3472 10.5444 22.542 10.7401C22.7367 10.9358 22.8462 11.2012 22.8462 11.4779C22.8462 11.7546 22.7367 12.02 22.542 12.2157C22.3472 12.4114 22.0831 12.5213 21.8077 12.5213H19.7308V14.6082C19.7308 14.885 19.6214 15.1504 19.4266 15.3461C19.2319 15.5418 18.9677 15.6517 18.6923 15.6517C18.4169 15.6517 18.1528 15.5418 17.958 15.3461C17.7633 15.1504 17.6538 14.885 17.6538 14.6082V12.5213H15.5769C15.3015 12.5213 15.0374 12.4114 14.8426 12.2157C14.6479 12.02 14.5385 11.7546 14.5385 11.4779Z" fill="#352D62"/>
</svg>
