<svg width="24" height="24" viewBox="0 0 24 24" fill="none" xmlns="http://www.w3.org/2000/svg">
<path d="M13.5749 23.9999V15.3074C13.5749 15.3015 13.6489 15.2271 13.6547 15.2271H16.7162L17.0889 12.1246H13.5749V9.95813C13.5749 9.76876 13.7058 9.2333 13.7729 9.03377C13.9779 8.42021 14.505 7.84517 15.1988 7.84517H17.1954V5.11704C14.6674 4.88061 11.6682 4.63935 10.5916 7.49586C9.97987 9.11936 10.4058 10.3738 10.2232 11.94C10.2168 11.9941 10.1987 12.1246 10.1407 12.1246H7.2389V15.2271H10.1407C10.1465 15.2271 10.2205 15.3015 10.2205 15.3074V23.9197C10.2205 24.0256 9.91279 23.9406 9.83771 23.9293C0.92104 22.5781 -3.04453 11.4324 2.66104 4.44999C10.1524 -4.71704 24.9003 1.31693 23.9568 13.1142C23.5165 18.6229 19.0547 23.3693 13.5749 24.0005V23.9999Z" fill="white"/>
</svg>
