<svg width="28" height="24" viewBox="0 0 28 24" fill="none" xmlns="http://www.w3.org/2000/svg">
<path d="M25.8462 0H2.15385C1.58261 0 1.03477 0.229869 0.630847 0.63904C0.226922 1.04821 0 1.60316 0 2.18182V21.8182C0 22.3968 0.226922 22.9518 0.630847 23.361C1.03477 23.7701 1.58261 24 2.15385 24H25.8462C26.4174 24 26.9652 23.7701 27.3692 23.361C27.7731 22.9518 28 22.3968 28 21.8182V2.18182C28 1.60316 27.7731 1.04821 27.3692 0.63904C26.9652 0.229869 26.4174 0 25.8462 0ZM25.8462 10.9091H19.3846V2.18182H25.8462V10.9091ZM2.15385 2.18182H17.2308V21.8182H2.15385V2.18182ZM25.8462 21.8182H19.3846V13.0909H25.8462V21.8182ZM21 6.54545C21 6.22181 21.0947 5.90544 21.2722 5.63634C21.4497 5.36724 21.702 5.1575 21.9972 5.03365C22.2924 4.9098 22.6172 4.87739 22.9305 4.94053C23.2439 5.00367 23.5317 5.15952 23.7576 5.38837C23.9835 5.61722 24.1374 5.90879 24.1997 6.22622C24.2621 6.54364 24.2301 6.87266 24.1078 7.17166C23.9855 7.47067 23.7785 7.72624 23.5128 7.90604C23.2472 8.08585 22.9349 8.18182 22.6154 8.18182C22.187 8.18182 21.7761 8.00942 21.4731 7.70254C21.1702 7.39566 21 6.97945 21 6.54545ZM24.2308 17.4545C24.2308 17.7782 24.136 18.0946 23.9585 18.3637C23.781 18.6328 23.5287 18.8425 23.2336 18.9663C22.9384 19.0902 22.6136 19.1226 22.3002 19.0595C21.9869 18.9963 21.6991 18.8405 21.4731 18.6116C21.2472 18.3828 21.0934 18.0912 21.031 17.7738C20.9687 17.4564 21.0007 17.1273 21.123 16.8283C21.2452 16.5293 21.4523 16.2738 21.7179 16.094C21.9836 15.9142 22.2959 15.8182 22.6154 15.8182C23.0438 15.8182 23.4547 15.9906 23.7576 16.2975C24.0606 16.6043 24.2308 17.0206 24.2308 17.4545ZM15.0433 17.1818C14.6948 15.8637 13.8685 14.7272 12.7292 13.9991C13.3342 13.3899 13.7471 12.6124 13.9153 11.7652C14.0836 10.918 13.9998 10.0393 13.6745 9.24048C13.3493 8.44161 12.7971 7.75857 12.0882 7.27794C11.3792 6.79731 10.5454 6.54073 9.69231 6.54073C8.83924 6.54073 8.00537 6.79731 7.29642 7.27794C6.58747 7.75857 6.03536 8.44161 5.71007 9.24048C5.38479 10.0393 5.30098 10.918 5.46927 11.7652C5.63756 12.6124 6.05038 13.3899 6.65539 13.9991C5.51688 14.728 4.69081 15.8642 4.34135 17.1818C4.26994 17.4621 4.31138 17.7596 4.45654 18.009C4.6017 18.2583 4.83869 18.439 5.11538 18.5114C5.39208 18.5837 5.6858 18.5417 5.93194 18.3947C6.17809 18.2476 6.35648 18.0076 6.42788 17.7273C6.78327 16.3295 8.18596 15.2727 9.69231 15.2727C11.1987 15.2727 12.6027 16.3268 12.9567 17.7273C13.0281 18.0076 13.2065 18.2476 13.4527 18.3947C13.6988 18.5417 13.9925 18.5837 14.2692 18.5114C14.5459 18.439 14.7829 18.2583 14.9281 18.009C15.0732 17.7596 15.1147 17.4621 15.0433 17.1818ZM7.53846 10.9091C7.53846 10.4776 7.66478 10.0557 7.90145 9.69694C8.13812 9.33814 8.4745 9.05849 8.86807 8.89335C9.26163 8.72822 9.6947 8.68501 10.1125 8.7692C10.5303 8.85338 10.9141 9.06118 11.2153 9.36631C11.5165 9.67145 11.7217 10.0602 11.8048 10.4834C11.8879 10.9067 11.8452 11.3454 11.6822 11.744C11.5192 12.1427 11.2431 12.4835 10.8889 12.7232C10.5347 12.9629 10.1183 13.0909 9.69231 13.0909C9.12107 13.0909 8.57323 12.861 8.16931 12.4519C7.76538 12.0427 7.53846 11.4877 7.53846 10.9091Z" fill="#352D62"/>
</svg>
