<svg width="24" height="24" viewBox="0 0 24 24" fill="none" xmlns="http://www.w3.org/2000/svg">
<path d="M24 11.2388V12.7393C23.9277 13.0095 23.9371 13.3182 23.8995 13.5997C23.2145 18.7684 19.1173 22.9869 13.9814 23.8365L12.7531 23.9907C12.2573 23.9695 11.7478 24.0198 11.2534 23.9907C1.42735 23.4159 -3.59437 11.5513 2.95993 4.09034C10.0288 -3.95615 23.3793 0.627479 24 11.2388ZM9.6504 5.11102C6.4195 5.25246 5.2325 6.54992 5.1123 9.75997C5.05924 11.1716 5.05924 12.806 5.1123 14.2177C5.23532 17.5029 6.49134 18.7595 9.7753 18.8826C11.1863 18.9357 12.8203 18.9357 14.2312 18.8826C17.5105 18.7595 18.7712 17.5005 18.8942 14.2177C18.9473 12.806 18.9473 11.1716 18.8942 9.75997C18.7712 6.47239 17.5128 5.21816 14.2312 5.09504C12.7766 5.04053 11.105 5.04711 9.6504 5.11055V5.11102Z" fill="white"/>
<path d="M11.9009 6.32862C12.8015 6.32721 13.8561 6.31123 14.7468 6.36104C18.1016 6.54948 17.6114 9.15004 17.625 11.6862C17.6302 12.6759 17.6852 13.7327 17.6288 14.7337C17.4415 18.0692 14.8731 17.5983 12.3531 17.6129C11.3468 17.6185 10.2768 17.674 9.2602 17.6166C5.94009 17.4301 6.39648 14.9075 6.38192 12.3855C6.37582 11.3606 6.31994 10.2774 6.37817 9.24449C6.56739 5.87655 9.32688 6.33332 11.9014 6.32862H11.9009ZM16.5066 8.30887C16.5066 7.85305 16.1371 7.48369 15.6816 7.48369C15.2262 7.48369 14.8566 7.85305 14.8566 8.30887C14.8566 8.7647 15.2262 9.13406 15.6816 9.13406C16.1371 9.13406 16.5066 8.7647 16.5066 8.30887ZM15.5379 11.9888C15.5379 10.0358 13.9551 8.4522 12.0028 8.4522C10.0504 8.4522 8.46762 10.0354 8.46762 11.9888C8.46762 13.9423 10.0504 15.5255 12.0028 15.5255C13.9551 15.5255 15.5379 13.9423 15.5379 11.9888Z" fill="white"/>
<path d="M12.0028 14.2872C13.2714 14.2872 14.2998 13.2582 14.2998 11.9888C14.2998 10.7195 13.2714 9.69045 12.0028 9.69045C10.7342 9.69045 9.7058 10.7195 9.7058 11.9888C9.7058 13.2582 10.7342 14.2872 12.0028 14.2872Z" fill="white"/>
</svg>
