<svg width="24" height="24" viewBox="0 0 24 24" fill="none" xmlns="http://www.w3.org/2000/svg">
<path d="M24 11.2487V12.7011L23.7337 14.5193C22.7073 19.3926 18.5635 23.2523 13.6051 23.8909C13.3275 23.9266 13.0098 23.9109 12.7435 23.9905C12.2503 23.9679 11.7321 24.0205 11.2427 23.9905C0.285066 23.3156 -4.08872 9.29783 4.63316 2.51685C12.2252 -3.38574 23.4423 1.73113 24 11.2487ZM8.70679 7.20738C8.70679 6.36656 8.02441 5.68477 7.18224 5.68477C6.34006 5.68477 5.65768 6.36656 5.65768 7.20738C5.65768 8.04819 6.34006 8.72998 7.18224 8.72998C8.02441 8.72998 8.70679 8.04819 8.70679 7.20738ZM18.3247 18.322C18.2671 16.6736 18.4006 14.9738 18.3266 13.331C18.2652 11.9643 18.0152 10.4166 16.5664 9.88884C15.4824 9.49379 14.127 9.58519 13.2341 10.3571C13.001 10.5587 12.8619 10.8042 12.6488 11.0139V9.88946H10.1631V18.3214H12.7428V13.7542C12.7428 13.4218 12.9271 12.7725 13.1263 12.4977C13.6076 11.8328 14.9147 11.7708 15.3897 12.4689C15.54 12.6899 15.6973 13.3053 15.6973 13.567V18.322H18.3247ZM5.89516 9.89009V18.322H8.52194V9.89009H5.89516Z" fill="white"/>
</svg>
