<svg width="34" height="24" viewBox="0 0 34 24" fill="none" xmlns="http://www.w3.org/2000/svg">
<path d="M12.1429 9.6C12.1429 9.28174 12.2708 8.97652 12.4985 8.75147C12.7262 8.52643 13.0351 8.4 13.3571 8.4H25.5C25.822 8.4 26.1309 8.52643 26.3586 8.75147C26.5864 8.97652 26.7143 9.28174 26.7143 9.6C26.7143 9.91826 26.5864 10.2235 26.3586 10.4485C26.1309 10.6736 25.822 10.8 25.5 10.8H13.3571C13.0351 10.8 12.7262 10.6736 12.4985 10.4485C12.2708 10.2235 12.1429 9.91826 12.1429 9.6ZM13.3571 15.6H25.5C25.822 15.6 26.1309 15.4736 26.3586 15.2485C26.5864 15.0235 26.7143 14.7183 26.7143 14.4C26.7143 14.0817 26.5864 13.7765 26.3586 13.5515C26.1309 13.3264 25.822 13.2 25.5 13.2H13.3571C13.0351 13.2 12.7262 13.3264 12.4985 13.5515C12.2708 13.7765 12.1429 14.0817 12.1429 14.4C12.1429 14.7183 12.2708 15.0235 12.4985 15.2485C12.7262 15.4736 13.0351 15.6 13.3571 15.6ZM34 2.4V20.4C34 21.3548 33.6162 22.2705 32.933 22.9456C32.2499 23.6207 31.3233 24 30.3571 24H3.64286C2.6796 24 1.75554 23.623 1.07285 22.9514C0.390163 22.2799 0.00441494 21.3684 0 20.4165V6C0 5.68174 0.127933 5.37652 0.355656 5.15147C0.583379 4.92643 0.892237 4.8 1.21429 4.8C1.53633 4.8 1.84519 4.92643 2.07292 5.15147C2.30064 5.37652 2.42857 5.68174 2.42857 6V20.4C2.42857 20.7183 2.5565 21.0235 2.78423 21.2485C3.01195 21.4736 3.32081 21.6 3.64286 21.6C3.96491 21.6 4.27376 21.4736 4.50149 21.2485C4.72921 21.0235 4.85714 20.7183 4.85714 20.4V2.4C4.85714 1.76348 5.11301 1.15303 5.56845 0.702944C6.0239 0.252856 6.64162 0 7.28571 0H31.5714C32.2155 0 32.8332 0.252856 33.2887 0.702944C33.7441 1.15303 34 1.76348 34 2.4ZM31.5714 2.4H7.28571V20.4C7.28632 20.8088 7.21598 21.2147 7.07777 21.6H30.3571C30.6792 21.6 30.9881 21.4736 31.2158 21.2485C31.4435 21.0235 31.5714 20.7183 31.5714 20.4V2.4Z" fill="#352D62"/>
</svg>
