<svg width="20" height="20" viewBox="0 0 20 20" fill="none" xmlns="http://www.w3.org/2000/svg">
<path d="M9.99984 1.66675C5.39984 1.66675 1.6665 5.40008 1.6665 10.0001C1.6665 14.6001 5.39984 18.3334 9.99984 18.3334C14.5998 18.3334 18.3332 14.6001 18.3332 10.0001C18.3332 5.40008 14.5998 1.66675 9.99984 1.66675ZM9.99984 5.00008C11.6082 5.00008 12.9165 6.30841 12.9165 7.91675C12.9165 9.52508 11.6082 10.8334 9.99984 10.8334C8.3915 10.8334 7.08317 9.52508 7.08317 7.91675C7.08317 6.30841 8.3915 5.00008 9.99984 5.00008ZM9.99984 16.6667C8.30817 16.6667 6.30817 15.9834 4.88317 14.2667C6.2915 13.1667 8.0665 12.5001 9.99984 12.5001C11.9332 12.5001 13.7082 13.1667 15.1165 14.2667C13.6915 15.9834 11.6915 16.6667 9.99984 16.6667Z" fill="white"/>
</svg>
