<svg width="28" height="24" viewBox="0 0 28 24" fill="none" xmlns="http://www.w3.org/2000/svg">
<path d="M18.9054 8.91L12.4438 4.54636C12.2816 4.43672 12.0931 4.37377 11.8983 4.36421C11.7035 4.35465 11.5098 4.39884 11.3379 4.49208C11.1659 4.58532 11.0222 4.7241 10.9221 4.89361C10.8219 5.06312 10.7691 5.257 10.7692 5.45455V14.1818C10.7691 14.3794 10.8219 14.5732 10.9221 14.7428C11.0222 14.9123 11.1659 15.051 11.3379 15.1443C11.5098 15.2375 11.7035 15.2817 11.8983 15.2722C12.0931 15.2626 12.2816 15.1996 12.4438 15.09L18.9054 10.7264C19.0531 10.6268 19.1742 10.4918 19.258 10.3333C19.3418 10.1749 19.3857 9.99793 19.3857 9.81818C19.3857 9.63844 19.3418 9.46148 19.258 9.30304C19.1742 9.1446 19.0531 9.00958 18.9054 8.91ZM12.9231 12.1432V7.5L16.3665 9.81818L12.9231 12.1432ZM25.8462 0H2.15385C1.58261 0 1.03477 0.229869 0.630847 0.63904C0.226922 1.04821 0 1.60316 0 2.18182V17.4545C0 18.0332 0.226922 18.5882 0.630847 18.9973C1.03477 19.4065 1.58261 19.6364 2.15385 19.6364H25.8462C26.4174 19.6364 26.9652 19.4065 27.3692 18.9973C27.7731 18.5882 28 18.0332 28 17.4545V2.18182C28 1.60316 27.7731 1.04821 27.3692 0.63904C26.9652 0.229869 26.4174 0 25.8462 0ZM25.8462 17.4545H2.15385V2.18182H25.8462V17.4545ZM28 22.9091C28 23.1984 27.8865 23.4759 27.6846 23.6805C27.4826 23.8851 27.2087 24 26.9231 24H1.07692C0.791305 24 0.517386 23.8851 0.315423 23.6805C0.113461 23.4759 0 23.1984 0 22.9091C0 22.6198 0.113461 22.3423 0.315423 22.1377C0.517386 21.9331 0.791305 21.8182 1.07692 21.8182H26.9231C27.2087 21.8182 27.4826 21.9331 27.6846 22.1377C27.8865 22.3423 28 22.6198 28 22.9091Z" fill="#352D62"/>
</svg>
