<svg width="24" height="24" viewBox="0 0 24 24" fill="none" xmlns="http://www.w3.org/2000/svg">
<path d="M12.7489 0L13.9764 0.154102C22.8257 1.63373 27.0723 12.1665 21.4792 19.3611C15.1795 27.4646 2.37596 24.3901 0.266455 14.49L0.00918272 12.7541C0.0304656 12.258 -0.0196118 11.7481 0.00918272 11.2538C0.358472 5.27642 5.3299 0.332008 11.2972 0H12.7489ZM7.67916 7.51466C6.73207 7.70822 5.96526 8.37976 5.75431 9.33882C5.71487 10.8892 5.54148 12.7309 5.68295 14.2726C5.78936 15.434 6.66572 16.4137 7.85318 16.5077H16.1466C17.3591 16.3749 18.2229 15.4434 18.3219 14.2312C18.4176 13.0542 18.4176 10.9556 18.3219 9.77795C18.2261 8.60026 17.3885 7.66813 16.1929 7.5015L7.67916 7.51466Z" fill="white"/>
<path d="M9.9658 9.46286L14.362 12.0344L9.9658 14.5451V9.46286Z" fill="white"/>
</svg>
